PathFileType	4	(X/Y/Z)	C:\Users\italobelli\Desktop\GitHub\PTbot_officialCBL\Personal_Results\ABD23_noisy1.trc
DataRate	CameraRate	NumFrames	NumMarkers	Units	OrigDataRate	OrigDataStartFrame	OrigNumFrames
105.444444	105.444444	34	9	m	105.444444	476	950
Frame#	Time		gu		centelbow		EpL		centpxt8		centijc7		ij		ts		aa		ai
			X1	Y1	Z1	X2	Y2	Z2	X3	Y3	Z3	X4	Y4	Z4	X5	Y5	Z5	X6	Y6	Z6	X7	Y7	Z7	X8	Y8	Z8	X9	Y9	Z9

476	4.5047	-0.098914	0.067086	0.10273	-0.021107	0.2155	0.27685	-0.038984	0.23689	0.26064	-0.046816	-0.15316	-0.008669	-0.046816	0.031938	-0.008669	0	0	0	-0.14069	-0.011501	0.037497	-0.13842	0.082099	0.11137	-0.13589	-0.077663	0.1296
477	4.5142	-0.098915	0.067086	0.10294	-0.021466	0.21391	0.27822	-0.039263	0.23548	0.26215	-0.046816	-0.15316	-0.008669	-0.046816	0.031938	-0.008669	0	0	0	-0.14058	-0.011333	0.037242	-0.1384	0.081886	0.11158	-0.13588	-0.077938	0.12899
478	4.5237	-0.098921	0.06707	0.10316	-0.021832	0.21226	0.27963	-0.039547	0.234	0.2637	-0.046816	-0.15316	-0.008669	-0.046816	0.031938	-0.008669	0	0	0	-0.14048	-0.011159	0.036975	-0.13839	0.08166	0.11179	-0.13588	-0.078223	0.12836
479	4.5332	-0.098933	0.067037	0.10339	-0.022204	0.21054	0.28106	-0.039837	0.23246	0.26529	-0.046816	-0.15316	-0.008669	-0.046816	0.031938	-0.008669	0	0	0	-0.14038	-0.010977	0.036696	-0.13839	0.081424	0.112	-0.13587	-0.078516	0.1277
480	4.5427	-0.098951	0.066989	0.10363	-0.022584	0.20876	0.28252	-0.040131	0.23086	0.2669	-0.046816	-0.15316	-0.008669	-0.046816	0.031938	-0.008669	0	0	0	-0.14028	-0.01079	0.036406	-0.13839	0.081177	0.11221	-0.13587	-0.078817	0.12702
481	4.5522	-0.098973	0.066925	0.10387	-0.02297	0.20692	0.284	-0.040431	0.22919	0.26855	-0.046816	-0.15316	-0.008669	-0.046816	0.031938	-0.008669	0	0	0	-0.14017	-0.010595	0.036106	-0.13839	0.08092	0.11243	-0.13586	-0.079126	0.12631
482	4.5616	-0.099001	0.066846	0.10413	-0.023361	0.20501	0.28551	-0.040736	0.22747	0.27023	-0.046816	-0.15316	-0.008669	-0.046816	0.031938	-0.008669	0	0	0	-0.14007	-0.010395	0.035795	-0.1384	0.080652	0.11264	-0.13585	-0.079441	0.12558
483	4.5711	-0.099033	0.066752	0.10439	-0.023759	0.20305	0.28704	-0.041045	0.22569	0.27194	-0.046816	-0.15316	-0.008669	-0.046816	0.031938	-0.008669	0	0	0	-0.13997	-0.010188	0.035475	-0.13841	0.080375	0.11286	-0.13585	-0.079763	0.12483
484	4.5806	-0.099069	0.066644	0.10467	-0.024162	0.20103	0.28859	-0.041358	0.22385	0.27367	-0.046816	-0.15316	-0.008669	-0.046816	0.031938	-0.008669	0	0	0	-0.13987	-0.0099759	0.035147	-0.13843	0.080088	0.11309	-0.13584	-0.080091	0.12405
485	4.5901	-0.09911	0.066522	0.10495	-0.024571	0.19896	0.29015	-0.041676	0.22195	0.27543	-0.046816	-0.15316	-0.008669	-0.046816	0.031938	-0.008669	0	0	0	-0.13977	-0.0097578	0.03481	-0.13845	0.079793	0.11331	-0.13583	-0.080425	0.12326
486	4.5996	-0.099155	0.066387	0.10524	-0.024985	0.19683	0.29174	-0.041997	0.22	0.27722	-0.046816	-0.15316	-0.008669	-0.046816	0.031938	-0.008669	0	0	0	-0.13967	-0.0095342	0.034467	-0.13847	0.079488	0.11354	-0.13582	-0.080763	0.12245
487	4.6091	-0.099203	0.066239	0.10553	-0.025403	0.19465	0.29334	-0.042322	0.218	0.27902	-0.046816	-0.15316	-0.008669	-0.046816	0.031938	-0.008669	0	0	0	-0.13957	-0.0093052	0.034116	-0.1385	0.079175	0.11377	-0.13581	-0.081106	0.12162
488	4.6185	-0.099255	0.066078	0.10584	-0.025826	0.19242	0.29496	-0.042651	0.21595	0.28085	-0.046816	-0.15316	-0.008669	-0.046816	0.031938	-0.008669	0	0	0	-0.13947	-0.009071	0.03376	-0.13853	0.078854	0.114	-0.13581	-0.081453	0.12077
489	4.628	-0.09931	0.065905	0.10615	-0.026254	0.19014	0.29659	-0.042983	0.21385	0.28269	-0.046816	-0.15316	-0.008669	-0.046816	0.031938	-0.008669	0	0	0	-0.13937	-0.0088318	0.033397	-0.13856	0.078525	0.11423	-0.1358	-0.081803	0.11991
490	4.6375	-0.099368	0.06572	0.10647	-0.026685	0.18781	0.29823	-0.043318	0.2117	0.28455	-0.046816	-0.15316	-0.008669	-0.046816	0.031938	-0.008669	0	0	0	-0.13927	-0.0085877	0.033031	-0.1386	0.078189	0.11446	-0.13579	-0.082155	0.11903
491	4.647	-0.099428	0.065524	0.10679	-0.02712	0.18544	0.29988	-0.043656	0.20951	0.28643	-0.046816	-0.15316	-0.008669	-0.046816	0.031938	-0.008669	0	0	0	-0.13917	-0.008339	0.03266	-0.13863	0.077845	0.1147	-0.13578	-0.08251	0.11813
492	4.6565	-0.099491	0.065316	0.10712	-0.027559	0.18303	0.30155	-0.043997	0.20727	0.28832	-0.046816	-0.15316	-0.008669	-0.046816	0.031938	-0.008669	0	0	0	-0.13907	-0.0080857	0.032285	-0.13867	0.077495	0.11494	-0.13577	-0.082867	0.11723
493	4.666	-0.099556	0.065098	0.10746	-0.028	0.18057	0.30322	-0.04434	0.20499	0.29022	-0.046816	-0.15316	-0.008669	-0.046816	0.031938	-0.008669	0	0	0	-0.13898	-0.0078281	0.031907	-0.13872	0.077138	0.11518	-0.13576	-0.083225	0.11631
494	4.6754	-0.099623	0.064869	0.10781	-0.028445	0.17807	0.30489	-0.044685	0.20266	0.29213	-0.046816	-0.15316	-0.008669	-0.046816	0.031938	-0.008669	0	0	0	-0.13888	-0.0075663	0.031528	-0.13876	0.076775	0.11542	-0.13575	-0.083584	0.11538
495	4.6849	-0.099692	0.064631	0.10816	-0.028892	0.17553	0.30658	-0.045032	0.2003	0.29405	-0.046816	-0.15316	-0.008669	-0.046816	0.031938	-0.008669	0	0	0	-0.13878	-0.0073005	0.031146	-0.13881	0.076406	0.11566	-0.13574	-0.083943	0.11444
496	4.6944	-0.099763	0.064383	0.10851	-0.029342	0.17295	0.30826	-0.045381	0.19789	0.29598	-0.046816	-0.15316	-0.008669	-0.046816	0.031938	-0.008669	0	0	0	-0.13868	-0.0070309	0.030764	-0.13885	0.076032	0.11591	-0.13573	-0.084302	0.11348
497	4.7039	-0.099834	0.064126	0.10888	-0.029794	0.17034	0.30995	-0.045732	0.19545	0.29791	-0.046816	-0.15316	-0.008669	-0.046816	0.031938	-0.008669	0	0	0	-0.13859	-0.0067576	0.030381	-0.1389	0.075652	0.11616	-0.13572	-0.08466	0.11253
498	4.7134	-0.099907	0.063861	0.10924	-0.030248	0.16769	0.31164	-0.046084	0.19297	0.29984	-0.046816	-0.15316	-0.008669	-0.046816	0.031938	-0.008669	0	0	0	-0.13849	-0.0064809	0.029999	-0.13895	0.075267	0.11641	-0.1357	-0.085016	0.11156
499	4.7229	-0.09998	0.063587	0.10962	-0.030703	0.16501	0.31333	-0.046438	0.19046	0.30178	-0.046816	-0.15316	-0.008669	-0.046816	0.031938	-0.008669	0	0	0	-0.13839	-0.0062008	0.029617	-0.139	0.074878	0.11666	-0.13569	-0.085371	0.11059
500	4.7323	-0.10005	0.063305	0.10999	-0.03116	0.1623	0.31501	-0.046792	0.18792	0.30372	-0.046816	-0.15316	-0.008669	-0.046816	0.031938	-0.008669	0	0	0	-0.1383	-0.0059176	0.029237	-0.13905	0.074485	0.11691	-0.13568	-0.085723	0.10961
501	4.7418	-0.10013	0.063016	0.11037	-0.031617	0.15956	0.3167	-0.047147	0.18534	0.30565	-0.046816	-0.15316	-0.008669	-0.046816	0.031938	-0.008669	0	0	0	-0.1382	-0.0056314	0.028859	-0.1391	0.074088	0.11717	-0.13567	-0.086072	0.10862
502	4.7513	-0.1002	0.062719	0.11076	-0.032076	0.15679	0.31838	-0.047503	0.18274	0.30758	-0.046816	-0.15316	-0.008669	-0.046816	0.031938	-0.008669	0	0	0	-0.1381	-0.0053425	0.028484	-0.13915	0.073687	0.11742	-0.13566	-0.086418	0.10764
503	4.7608	-0.10028	0.062416	0.11115	-0.032535	0.154	0.32005	-0.047859	0.1801	0.30951	-0.046816	-0.15316	-0.008669	-0.046816	0.031938	-0.008669	0	0	0	-0.13801	-0.0050508	0.028113	-0.1392	0.073283	0.11768	-0.13565	-0.08676	0.10665
504	4.7703	-0.10035	0.062107	0.11155	-0.032994	0.15118	0.32172	-0.048216	0.17744	0.31143	-0.046816	-0.15316	-0.008669	-0.046816	0.031938	-0.008669	0	0	0	-0.13791	-0.0047568	0.027745	-0.13925	0.072876	0.11794	-0.13563	-0.087097	0.10566
505	4.7798	-0.10042	0.061791	0.11194	-0.033454	0.14833	0.32337	-0.048572	0.17476	0.31334	-0.046816	-0.15316	-0.008669	-0.046816	0.031938	-0.008669	0	0	0	-0.13781	-0.0044604	0.027382	-0.1393	0.072467	0.1182	-0.13562	-0.087429	0.10466
506	4.7893	-0.10049	0.061471	0.11235	-0.033913	0.14547	0.32502	-0.048928	0.17205	0.31525	-0.046816	-0.15316	-0.008669	-0.046816	0.031938	-0.008669	0	0	0	-0.13772	-0.0041619	0.027025	-0.13935	0.072055	0.11846	-0.13561	-0.087756	0.10367
507	4.7987	-0.10056	0.061145	0.11275	-0.034371	0.14258	0.32666	-0.049283	0.16931	0.31714	-0.046816	-0.15316	-0.008669	-0.046816	0.031938	-0.008669	0	0	0	-0.13762	-0.0038615	0.026674	-0.13939	0.071641	0.11873	-0.1356	-0.088077	0.10268
508	4.8082	-0.10063	0.060814	0.11316	-0.034829	0.13968	0.32828	-0.049638	0.16656	0.31901	-0.046816	-0.15316	-0.008669	-0.046816	0.031938	-0.008669	0	0	0	-0.13753	-0.0035593	0.026329	-0.13944	0.071225	0.11899	-0.13558	-0.088391	0.10169
509	4.8177	-0.1007	0.060479	0.11357	-0.035286	0.13676	0.32989	-0.049992	0.16379	0.32088	-0.046816	-0.15316	-0.008669	-0.046816	0.031938	-0.008669	0	0	0	-0.13743	-0.0032555	0.025992	-0.13949	0.070809	0.11926	-0.13557	-0.088698	0.10071
